<svg width="200" height="48" viewBox="0 0 200 48" fill="none" xmlns="http://www.w3.org/2000/svg">
  <!-- Document with rounded corners -->
  <rect x="4" y="8" width="20" height="26" rx="3" fill="#2563EB"/>
  
  <!-- Document lines -->
  <rect x="7" y="13" width="10" height="2" rx="1" fill="white"/>
  <rect x="7" y="17" width="8" height="2" rx="1" fill="white"/>
  <rect x="7" y="21" width="6" height="2" rx="1" fill="white"/>
  
  <!-- Shield -->
  <path d="M18 20L22 17C24 18 26 19 26 20V26C26 28 24 30 22 31C20 30 18 28 18 26V20Z" fill="#3B82F6"/>
  <path d="M19 21L22 18.5C23.5 19.2 25 20 25 21V26C25 27.5 23.5 29 22 29.5C20.5 29 19 27.5 19 26V21Z" fill="white"/>
  
  <!-- Text "Policy" -->
  <text x="36" y="22" font-family="system-ui, -apple-system, BlinkMacSystemFont, sans-serif" font-size="16" font-weight="700" fill="#1F2937">Policy</text>
  
  <!-- Text "Generator" -->
  <text x="36" y="36" font-family="system-ui, -apple-system, BlinkMacSystemFont, sans-serif" font-size="16" font-weight="700" fill="#1F2937">Generator</text>
</svg> 